<?xml version="1.0" encoding="UTF-8"?>
<!--Generator: Apple Native CoreSVG 175-->
<!DOCTYPE svg
PUBLIC "-//W3C//DTD SVG 1.1//EN"
       "http://www.w3.org/Graphics/SVG/1.1/DTD/svg11.dtd">
<svg version="1.1" xmlns="http://www.w3.org/2000/svg" xmlns:xlink="http://www.w3.org/1999/xlink" width="3300" height="2200">
 <!--glyph: "uni100000.medium", point size: 100.0, font version: "17.0d12e1", template writer version: "65.1"-->
 <g id="Notes">
  <rect height="2200" id="artboard" style="fill:white;opacity:1" width="3300" x="0" y="0"/>
  <line style="fill:none;stroke:black;opacity:1;stroke-width:0.5;" x1="263" x2="3036" y1="292" y2="292"/>
  <text style="stroke:none;fill:black;font-family:sans-serif;font-size:13;font-weight:bold;" transform="matrix(1 0 0 1 263 322)">Weight/Scale Variations</text>
  <text style="stroke:none;fill:black;font-family:sans-serif;font-size:13;text-anchor:middle;" transform="matrix(1 0 0 1 559.711 322)">Ultralight</text>
  <text style="stroke:none;fill:black;font-family:sans-serif;font-size:13;text-anchor:middle;" transform="matrix(1 0 0 1 856.422 322)">Thin</text>
  <text style="stroke:none;fill:black;font-family:sans-serif;font-size:13;text-anchor:middle;" transform="matrix(1 0 0 1 1153.13 322)">Light</text>
  <text style="stroke:none;fill:black;font-family:sans-serif;font-size:13;text-anchor:middle;" transform="matrix(1 0 0 1 1449.84 322)">Regular</text>
  <text style="stroke:none;fill:black;font-family:sans-serif;font-size:13;text-anchor:middle;" transform="matrix(1 0 0 1 1746.56 322)">Medium</text>
  <text style="stroke:none;fill:black;font-family:sans-serif;font-size:13;text-anchor:middle;" transform="matrix(1 0 0 1 2043.27 322)">Semibold</text>
  <text style="stroke:none;fill:black;font-family:sans-serif;font-size:13;text-anchor:middle;" transform="matrix(1 0 0 1 2339.98 322)">Bold</text>
  <text style="stroke:none;fill:black;font-family:sans-serif;font-size:13;text-anchor:middle;" transform="matrix(1 0 0 1 2636.69 322)">Heavy</text>
  <text style="stroke:none;fill:black;font-family:sans-serif;font-size:13;text-anchor:middle;" transform="matrix(1 0 0 1 2933.4 322)">Black</text>
  <line style="fill:none;stroke:black;opacity:1;stroke-width:0.5;" x1="263" x2="3036" y1="1903" y2="1903"/>
  <g transform="matrix(1 0 0 1 263 1933)">
   <path d="M9.24805 0.830078Q10.8691 0.830078 12.2949 0.214844Q13.7207-0.400391 14.8096-1.49414Q15.8984-2.58789 16.5186-4.01367Q17.1387-5.43945 17.1387-7.05078Q17.1387-8.66211 16.5186-10.0879Q15.8984-11.5137 14.8047-12.6074Q13.7109-13.7012 12.2852-14.3164Q10.8594-14.9316 9.23828-14.9316Q7.62695-14.9316 6.20117-14.3164Q4.77539-13.7012 3.69141-12.6074Q2.60742-11.5137 1.9873-10.0879Q1.36719-8.66211 1.36719-7.05078Q1.36719-5.43945 1.9873-4.01367Q2.60742-2.58789 3.69629-1.49414Q4.78516-0.400391 6.21094 0.214844Q7.63672 0.830078 9.24805 0.830078ZM9.24805-0.654297Q7.91992-0.654297 6.7627-1.14746Q5.60547-1.64062 4.73145-2.51953Q3.85742-3.39844 3.36426-4.56055Q2.87109-5.72266 2.87109-7.05078Q2.87109-8.37891 3.35938-9.54102Q3.84766-10.7031 4.72168-11.582Q5.5957-12.4609 6.75293-12.9541Q7.91016-13.4473 9.23828-13.4473Q10.5762-13.4473 11.7334-12.9541Q12.8906-12.4609 13.7695-11.582Q14.6484-10.7031 15.1465-9.54102Q15.6445-8.37891 15.6445-7.05078Q15.6445-5.72266 15.1514-4.56055Q14.6582-3.39844 13.7842-2.51953Q12.9102-1.64062 11.748-1.14746Q10.5859-0.654297 9.24805-0.654297ZM5.6543-7.05078Q5.6543-6.72852 5.85938-6.52832Q6.06445-6.32812 6.40625-6.32812L8.51562-6.32812L8.51562-4.20898Q8.51562-3.88672 8.71094-3.67676Q8.90625-3.4668 9.23828-3.4668Q9.56055-3.4668 9.77051-3.67676Q9.98047-3.88672 9.98047-4.20898L9.98047-6.32812L12.0898-6.32812Q12.4219-6.32812 12.627-6.52832Q12.832-6.72852 12.832-7.05078Q12.832-7.38281 12.627-7.58789Q12.4219-7.79297 12.0898-7.79297L9.98047-7.79297L9.98047-9.90234Q9.98047-10.2344 9.77051-10.4443Q9.56055-10.6543 9.23828-10.6543Q8.90625-10.6543 8.71094-10.4443Q8.51562-10.2344 8.51562-9.90234L8.51562-7.79297L6.40625-7.79297Q6.06445-7.79297 5.85938-7.58789Q5.6543-7.38281 5.6543-7.05078Z"/>
  </g>
  <g transform="matrix(1 0 0 1 281.867 1933)">
   <path d="M11.709 2.91016Q13.75 2.91016 15.5518 2.12891Q17.3535 1.34766 18.7305-0.0292969Q20.1074-1.40625 20.8887-3.20801Q21.6699-5.00977 21.6699-7.05078Q21.6699-9.0918 20.8887-10.8936Q20.1074-12.6953 18.7305-14.0723Q17.3535-15.4492 15.5469-16.2305Q13.7402-17.0117 11.6992-17.0117Q9.6582-17.0117 7.85645-16.2305Q6.05469-15.4492 4.68262-14.0723Q3.31055-12.6953 2.5293-10.8936Q1.74805-9.0918 1.74805-7.05078Q1.74805-5.00977 2.5293-3.20801Q3.31055-1.40625 4.6875-0.0292969Q6.06445 1.34766 7.86621 2.12891Q9.66797 2.91016 11.709 2.91016ZM11.709 1.25Q9.98047 1.25 8.47656 0.605469Q6.97266-0.0390625 5.83496-1.17676Q4.69727-2.31445 4.05762-3.81836Q3.41797-5.32227 3.41797-7.05078Q3.41797-8.7793 4.05762-10.2832Q4.69727-11.7871 5.83008-12.9297Q6.96289-14.0723 8.4668-14.7119Q9.9707-15.3516 11.6992-15.3516Q13.4277-15.3516 14.9316-14.7119Q16.4355-14.0723 17.5781-12.9297Q18.7207-11.7871 19.3652-10.2832Q20.0098-8.7793 20.0098-7.05078Q20.0098-5.32227 19.3701-3.81836Q18.7305-2.31445 17.5928-1.17676Q16.4551-0.0390625 14.9463 0.605469Q13.4375 1.25 11.709 1.25ZM7.17773-7.05078Q7.17773-6.69922 7.41211-6.47461Q7.64648-6.25 8.01758-6.25L10.8887-6.25L10.8887-3.36914Q10.8887-2.99805 11.1133-2.76855Q11.3379-2.53906 11.6895-2.53906Q12.0605-2.53906 12.29-2.76855Q12.5195-2.99805 12.5195-3.36914L12.5195-6.25L15.4004-6.25Q15.7715-6.25 16.001-6.47461Q16.2305-6.69922 16.2305-7.05078Q16.2305-7.42188 16.001-7.65137Q15.7715-7.88086 15.4004-7.88086L12.5195-7.88086L12.5195-10.752Q12.5195-11.1328 12.29-11.3623Q12.0605-11.5918 11.6895-11.5918Q11.3379-11.5918 11.1133-11.3574Q10.8887-11.123 10.8887-10.752L10.8887-7.88086L8.01758-7.88086Q7.63672-7.88086 7.40723-7.65137Q7.17773-7.42188 7.17773-7.05078Z"/>
  </g>
  <g transform="matrix(1 0 0 1 305.646 1933)">
   <path d="M14.9707 5.66406Q17.0605 5.66406 18.96 5.01465Q20.8594 4.36523 22.4512 3.19336Q24.043 2.02148 25.2197 0.429688Q26.3965-1.16211 27.0459-3.06641Q27.6953-4.9707 27.6953-7.05078Q27.6953-9.14062 27.0459-11.04Q26.3965-12.9395 25.2197-14.5312Q24.043-16.123 22.4512-17.2998Q20.8594-18.4766 18.9551-19.126Q17.0508-19.7754 14.9609-19.7754Q12.8711-19.7754 10.9717-19.126Q9.07227-18.4766 7.48535-17.2998Q5.89844-16.123 4.72168-14.5312Q3.54492-12.9395 2.90039-11.04Q2.25586-9.14062 2.25586-7.05078Q2.25586-4.9707 2.90527-3.06641Q3.55469-1.16211 4.72656 0.429688Q5.89844 2.02148 7.49023 3.19336Q9.08203 4.36523 10.9814 5.01465Q12.8809 5.66406 14.9707 5.66406ZM14.9707 3.84766Q13.1641 3.84766 11.5283 3.2959Q9.89258 2.74414 8.53516 1.74805Q7.17773 0.751953 6.17676-0.610352Q5.17578-1.97266 4.62891-3.6084Q4.08203-5.24414 4.08203-7.05078Q4.08203-8.86719 4.62891-10.5029Q5.17578-12.1387 6.17188-13.501Q7.16797-14.8633 8.52539-15.8594Q9.88281-16.8555 11.5186-17.4023Q13.1543-17.9492 14.9609-17.9492Q16.7773-17.9492 18.4131-17.4023Q20.0488-16.8555 21.4111-15.8594Q22.7734-14.8633 23.7695-13.501Q24.7656-12.1387 25.3174-10.5029Q25.8691-8.86719 25.8691-7.05078Q25.8789-5.24414 25.332-3.6084Q24.7852-1.97266 23.7842-0.610352Q22.7832 0.751953 21.4209 1.74805Q20.0586 2.74414 18.4229 3.2959Q16.7871 3.84766 14.9707 3.84766ZM9.19922-7.05078Q9.19922-6.66992 9.45801-6.4209Q9.7168-6.17188 10.1172-6.17188L14.0625-6.17188L14.0625-2.2168Q14.0625-1.81641 14.3115-1.55762Q14.5605-1.29883 14.9512-1.29883Q15.3516-1.29883 15.6104-1.55273Q15.8691-1.80664 15.8691-2.2168L15.8691-6.17188L19.8242-6.17188Q20.2246-6.17188 20.4785-6.4209Q20.7324-6.66992 20.7324-7.05078Q20.7324-7.46094 20.4785-7.71484Q20.2246-7.96875 19.8242-7.96875L15.8691-7.96875L15.8691-11.9141Q15.8691-12.3242 15.6104-12.583Q15.3516-12.8418 14.9512-12.8418Q14.5605-12.8418 14.3115-12.583Q14.0625-12.3242 14.0625-11.9141L14.0625-7.96875L10.1172-7.96875Q9.70703-7.96875 9.45312-7.71484Q9.19922-7.46094 9.19922-7.05078Z"/>
  </g>
  <text style="stroke:none;fill:black;font-family:sans-serif;font-size:13;font-weight:bold;" transform="matrix(1 0 0 1 263 1953)">Design Variations</text>
  <text style="stroke:none;fill:black;font-family:sans-serif;font-size:13;" transform="matrix(1 0 0 1 263 1971)">Symbols are supported in up to nine weights and three scales.</text>
  <text style="stroke:none;fill:black;font-family:sans-serif;font-size:13;" transform="matrix(1 0 0 1 263 1989)">For optimal layout with text and other symbols, vertically align</text>
  <text style="stroke:none;fill:black;font-family:sans-serif;font-size:13;" transform="matrix(1 0 0 1 263 2007)">symbols with the adjacent text.</text>
  <line style="fill:none;stroke:#00AEEF;stroke-width:0.5;opacity:1.0;" x1="776" x2="776" y1="1919" y2="1933"/>
  <g transform="matrix(1 0 0 1 776 1933)">
   <path d="M3.31055 0.15625Q3.70117 0.15625 3.91602-0.00976562Q4.13086-0.175781 4.26758-0.585938L5.52734-4.0332L11.2891-4.0332L12.5488-0.585938Q12.6855-0.175781 12.9004-0.00976562Q13.1152 0.15625 13.4961 0.15625Q13.8867 0.15625 14.1162-0.0585938Q14.3457-0.273438 14.3457-0.644531Q14.3457-0.869141 14.2383-1.17188L9.6582-13.3691Q9.48242-13.8184 9.17969-14.043Q8.87695-14.2676 8.4082-14.2676Q7.5-14.2676 7.17773-13.3789L2.59766-1.16211Q2.49023-0.859375 2.49023-0.634766Q2.49023-0.263672 2.70996-0.0537109Q2.92969 0.15625 3.31055 0.15625ZM6.00586-5.51758L8.37891-12.0898L8.42773-12.0898L10.8008-5.51758Z"/>
  </g>
  <line style="fill:none;stroke:#00AEEF;stroke-width:0.5;opacity:1.0;" x1="793.197" x2="793.197" y1="1919" y2="1933"/>
  <text style="stroke:none;fill:black;font-family:sans-serif;font-size:13;font-weight:bold;" transform="matrix(1 0 0 1 776 1953)">Margins</text>
  <text style="stroke:none;fill:black;font-family:sans-serif;font-size:13;" transform="matrix(1 0 0 1 776 1971)">Leading and trailing margins on the left and right side of each symbol</text>
  <text style="stroke:none;fill:black;font-family:sans-serif;font-size:13;" transform="matrix(1 0 0 1 776 1989)">can be adjusted by modifying the x-location of the margin guidelines.</text>
  <text style="stroke:none;fill:black;font-family:sans-serif;font-size:13;" transform="matrix(1 0 0 1 776 2007)">Modifications are automatically applied proportionally to all</text>
  <text style="stroke:none;fill:black;font-family:sans-serif;font-size:13;" transform="matrix(1 0 0 1 776 2025)">scales and weights.</text>
  <g transform="matrix(1 0 0 1 1289 1933)">
   <path d="M2.8418 1.86523L4.54102 3.57422Q5.18555 4.22852 5.90332 4.17969Q6.62109 4.13086 7.31445 3.35938L18.0078-8.42773L17.041-9.4043L6.42578 2.27539Q6.16211 2.57812 5.89355 2.61719Q5.625 2.65625 5.27344 2.30469L4.10156 1.14258Q3.75 0.791016 3.79395 0.522461Q3.83789 0.253906 4.14062-0.0195312L15.6152-10.8203L14.6387-11.7871L3.04688-0.898438Q2.30469-0.214844 2.25098 0.498047Q2.19727 1.21094 2.8418 1.86523ZM9.25781-16.3281Q8.94531-16.0254 8.90625-15.6348Q8.86719-15.2441 9.04297-14.9512Q9.21875-14.6777 9.55566-14.541Q9.89258-14.4043 10.3809-14.5215Q11.4746-14.7754 12.5977-14.7314Q13.7207-14.6875 14.7949-13.9844L14.209-12.5293Q13.9551-11.9043 14.0674-11.4404Q14.1797-10.9766 14.5801-10.5664L16.875-8.25195Q17.2363-7.88086 17.5781-7.82227Q17.9199-7.76367 18.3398-7.8418L19.4043-8.03711L20.0684-7.36328L20.0293-6.80664Q20-6.43555 20.1221-6.12305Q20.2441-5.81055 20.6055-5.44922L21.3672-4.70703Q21.7285-4.3457 22.1533-4.33105Q22.5781-4.31641 22.9297-4.66797L25.8398-7.58789Q26.1914-7.93945 26.1816-8.35449Q26.1719-8.76953 25.8105-9.13086L25.0391-9.89258Q24.6875-10.2539 24.3799-10.3857Q24.0723-10.5176 23.7109-10.4883L23.1348-10.4395L22.4902-11.0742L22.7344-12.1973Q22.832-12.6172 22.6953-12.9834Q22.5586-13.3496 22.1191-13.7891L19.9219-15.9766Q18.6719-17.2168 17.2607-17.8369Q15.8496-18.457 14.4189-18.4814Q12.9883-18.5059 11.665-17.959Q10.3418-17.4121 9.25781-16.3281ZM10.752-15.957Q11.6602-16.6211 12.7002-16.9043Q13.7402-17.1875 14.8047-17.085Q15.8691-16.9824 16.8701-16.5137Q17.8711-16.0449 18.7012-15.2051L21.1328-12.793Q21.3086-12.6172 21.3525-12.4512Q21.3965-12.2852 21.3379-12.0312L21.0156-10.5469L22.5195-9.0625L23.5059-9.12109Q23.6914-9.13086 23.7891-9.09668Q23.8867-9.0625 24.0332-8.91602L24.6094-8.33984L22.168-5.89844L21.5918-6.47461Q21.4453-6.62109 21.4062-6.71875Q21.3672-6.81641 21.377-7.01172L21.4453-7.98828L19.9512-9.47266L18.4277-9.21875Q18.1836-9.16992 18.042-9.2041Q17.9004-9.23828 17.7148-9.41406L15.7129-11.416Q15.5176-11.5918 15.4932-11.7529Q15.4688-11.9141 15.5859-12.1875L16.4648-14.2773Q15.293-15.3711 13.8281-15.791Q12.3633-16.2109 10.8398-15.7617Q10.7227-15.7324 10.6885-15.8057Q10.6543-15.8789 10.752-15.957Z"/>
  </g>
  <text style="stroke:none;fill:black;font-family:sans-serif;font-size:13;font-weight:bold;" transform="matrix(1 0 0 1 1289 1953)">Exporting</text>
  <text style="stroke:none;fill:black;font-family:sans-serif;font-size:13;" transform="matrix(1 0 0 1 1289 1971)">Symbols should be outlined when exporting to ensure the</text>
  <text style="stroke:none;fill:black;font-family:sans-serif;font-size:13;" transform="matrix(1 0 0 1 1289 1989)">design is preserved when submitting to Xcode.</text>
  <text id="template-version" style="stroke:none;fill:black;font-family:sans-serif;font-size:13;text-anchor:end;" transform="matrix(1 0 0 1 3036 1933)">Template v.3.0</text>
  <text style="stroke:none;fill:black;font-family:sans-serif;font-size:13;text-anchor:end;" transform="matrix(1 0 0 1 3036 1951)">Requires Xcode 13 or greater</text>
  <text id="descriptive-name" style="stroke:none;fill:black;font-family:sans-serif;font-size:13;text-anchor:end;" transform="matrix(1 0 0 1 3036 1969)">Generated from circle</text>
  <text style="stroke:none;fill:black;font-family:sans-serif;font-size:13;text-anchor:end;" transform="matrix(1 0 0 1 3036 1987)">Typeset at 100 points</text>
  <text style="stroke:none;fill:black;font-family:sans-serif;font-size:13;" transform="matrix(1 0 0 1 263 726)">Small</text>
  <text style="stroke:none;fill:black;font-family:sans-serif;font-size:13;" transform="matrix(1 0 0 1 263 1156)">Medium</text>
  <text style="stroke:none;fill:black;font-family:sans-serif;font-size:13;" transform="matrix(1 0 0 1 263 1586)">Large</text>
 </g>
 <g id="Guides">
  <g id="H-reference" style="fill:#27AAE1;stroke:none;" transform="matrix(1 0 0 1 339 696)">
   <path d="M0.993347 0L3.6377 0L29.3282-67.1326L30.0301-67.1326L30.0301-70.459L28.1227-70.459ZM11.6882-24.4797L46.9818-24.4797L46.2311-26.7288L12.4382-26.7288ZM55.1193 0L57.7637 0L30.6381-70.459L29.4327-70.459L29.4327-67.1326Z"/>
  </g>
  <line id="Baseline-S" style="fill:none;stroke:#27AAE1;opacity:1;stroke-width:0.5;" x1="263" x2="3036" y1="696" y2="696"/>
  <line id="Capline-S" style="fill:none;stroke:#27AAE1;opacity:1;stroke-width:0.5;" x1="263" x2="3036" y1="625.541" y2="625.541"/>
  <g id="H-reference" style="fill:#27AAE1;stroke:none;" transform="matrix(1 0 0 1 339 1126)">
   <path d="M0.993347 0L3.6377 0L29.3282-67.1326L30.0301-67.1326L30.0301-70.459L28.1227-70.459ZM11.6882-24.4797L46.9818-24.4797L46.2311-26.7288L12.4382-26.7288ZM55.1193 0L57.7637 0L30.6381-70.459L29.4327-70.459L29.4327-67.1326Z"/>
  </g>
  <line id="Baseline-M" style="fill:none;stroke:#27AAE1;opacity:1;stroke-width:0.5;" x1="263" x2="3036" y1="1126" y2="1126"/>
  <line id="Capline-M" style="fill:none;stroke:#27AAE1;opacity:1;stroke-width:0.5;" x1="263" x2="3036" y1="1055.54" y2="1055.54"/>
  <g id="H-reference" style="fill:#27AAE1;stroke:none;" transform="matrix(1 0 0 1 339 1556)">
   <path d="M0.993347 0L3.6377 0L29.3282-67.1326L30.0301-67.1326L30.0301-70.459L28.1227-70.459ZM11.6882-24.4797L46.9818-24.4797L46.2311-26.7288L12.4382-26.7288ZM55.1193 0L57.7637 0L30.6381-70.459L29.4327-70.459L29.4327-67.1326Z"/>
  </g>
  <line id="Baseline-L" style="fill:none;stroke:#27AAE1;opacity:1;stroke-width:0.5;" x1="263" x2="3036" y1="1556" y2="1556"/>
  <line id="Capline-L" style="fill:none;stroke:#27AAE1;opacity:1;stroke-width:0.5;" x1="263" x2="3036" y1="1485.54" y2="1485.54"/>
  <line id="left-margin-Ultralight-S" style="fill:none;stroke:#00AEEF;stroke-width:0.5;opacity:1.0;" x1="515.649" x2="515.649" y1="600.785" y2="720.121"/>
  <line id="right-margin-Ultralight-S" style="fill:none;stroke:#00AEEF;stroke-width:0.5;opacity:1.0;" x1="603.773" x2="603.773" y1="600.785" y2="720.121"/>
  <line id="left-margin-Thin-S" style="fill:none;stroke:#00AEEF;stroke-width:0.5;opacity:1.0;" x1="811.863" x2="811.863" y1="600.785" y2="720.121"/>
  <line id="right-margin-Thin-S" style="fill:none;stroke:#00AEEF;stroke-width:0.5;opacity:1.0;" x1="900.982" x2="900.982" y1="600.785" y2="720.121"/>
  <line id="left-margin-Light-S" style="fill:none;stroke:#00AEEF;stroke-width:0.5;opacity:1.0;" x1="1107.6" x2="1107.6" y1="600.785" y2="720.121"/>
  <line id="right-margin-Light-S" style="fill:none;stroke:#00AEEF;stroke-width:0.5;opacity:1.0;" x1="1198.66" x2="1198.66" y1="600.785" y2="720.121"/>
  <line id="left-margin-Regular-S" style="fill:none;stroke:#00AEEF;stroke-width:0.5;opacity:1.0;" x1="1403.58" x2="1403.58" y1="600.785" y2="720.121"/>
  <line id="right-margin-Regular-S" style="fill:none;stroke:#00AEEF;stroke-width:0.5;opacity:1.0;" x1="1496.11" x2="1496.11" y1="600.785" y2="720.121"/>
  <line id="left-margin-Medium-S" style="fill:none;stroke:#00AEEF;stroke-width:0.5;opacity:1.0;" x1="1699.83" x2="1699.83" y1="600.785" y2="720.121"/>
  <line id="right-margin-Medium-S" style="fill:none;stroke:#00AEEF;stroke-width:0.5;opacity:1.0;" x1="1793.28" x2="1793.28" y1="600.785" y2="720.121"/>
  <line id="left-margin-Semibold-S" style="fill:none;stroke:#00AEEF;stroke-width:0.5;opacity:1.0;" x1="1996.19" x2="1996.19" y1="600.785" y2="720.121"/>
  <line id="right-margin-Semibold-S" style="fill:none;stroke:#00AEEF;stroke-width:0.5;opacity:1.0;" x1="2090.35" x2="2090.35" y1="600.785" y2="720.121"/>
  <line id="left-margin-Bold-S" style="fill:none;stroke:#00AEEF;stroke-width:0.5;opacity:1.0;" x1="2292.43" x2="2292.43" y1="600.785" y2="720.121"/>
  <line id="right-margin-Bold-S" style="fill:none;stroke:#00AEEF;stroke-width:0.5;opacity:1.0;" x1="2387.52" x2="2387.52" y1="600.785" y2="720.121"/>
  <line id="left-margin-Heavy-S" style="fill:none;stroke:#00AEEF;stroke-width:0.5;opacity:1.0;" x1="2588.47" x2="2588.47" y1="600.785" y2="720.121"/>
  <line id="right-margin-Heavy-S" style="fill:none;stroke:#00AEEF;stroke-width:0.5;opacity:1.0;" x1="2684.91" x2="2684.91" y1="600.785" y2="720.121"/>
  <line id="left-margin-Black-S" style="fill:none;stroke:#00AEEF;stroke-width:0.5;opacity:1.0;" x1="2884.57" x2="2884.57" y1="600.785" y2="720.121"/>
  <line id="right-margin-Black-S" style="fill:none;stroke:#00AEEF;stroke-width:0.5;opacity:1.0;" x1="2982.23" x2="2982.23" y1="600.785" y2="720.121"/>
  <line id="left-margin-Ultralight-M" style="fill:none;stroke:#00AEEF;stroke-width:0.5;opacity:1.0;" x1="503.641" x2="503.641" y1="1030.79" y2="1150.12"/>
  <line id="right-margin-Ultralight-M" style="fill:none;stroke:#00AEEF;stroke-width:0.5;opacity:1.0;" x1="615.781" x2="615.781" y1="1030.79" y2="1150.12"/>
  <line id="left-margin-Thin-M" style="fill:none;stroke:#00AEEF;stroke-width:0.5;opacity:1.0;" x1="799.793" x2="799.793" y1="1030.79" y2="1150.12"/>
  <line id="right-margin-Thin-M" style="fill:none;stroke:#00AEEF;stroke-width:0.5;opacity:1.0;" x1="913.051" x2="913.051" y1="1030.79" y2="1150.12"/>
  <line id="left-margin-Light-M" style="fill:none;stroke:#00AEEF;stroke-width:0.5;opacity:1.0;" x1="1095.41" x2="1095.41" y1="1030.79" y2="1150.12"/>
  <line id="right-margin-Light-M" style="fill:none;stroke:#00AEEF;stroke-width:0.5;opacity:1.0;" x1="1210.85" x2="1210.85" y1="1030.79" y2="1150.12"/>
  <line id="left-margin-Regular-M" style="fill:none;stroke:#00AEEF;stroke-width:0.5;opacity:1.0;" x1="1391.3" x2="1391.3" y1="1030.79" y2="1150.12"/>
  <line id="right-margin-Regular-M" style="fill:none;stroke:#00AEEF;stroke-width:0.5;opacity:1.0;" x1="1508.39" x2="1508.39" y1="1030.79" y2="1150.12"/>
  <line id="left-margin-Medium-M" style="fill:none;stroke:#00AEEF;stroke-width:0.5;opacity:1.0;" x1="1687.37" x2="1687.37" y1="1030.79" y2="1150.12"/>
  <line id="right-margin-Medium-M" style="fill:none;stroke:#00AEEF;stroke-width:0.5;opacity:1.0;" x1="1805.74" x2="1805.74" y1="1030.79" y2="1150.12"/>
  <line id="left-margin-Semibold-M" style="fill:none;stroke:#00AEEF;stroke-width:0.5;opacity:1.0;" x1="1983.6" x2="1983.6" y1="1030.79" y2="1150.12"/>
  <line id="right-margin-Semibold-M" style="fill:none;stroke:#00AEEF;stroke-width:0.5;opacity:1.0;" x1="2102.94" x2="2102.94" y1="1030.79" y2="1150.12"/>
  <line id="left-margin-Bold-M" style="fill:none;stroke:#00AEEF;stroke-width:0.5;opacity:1.0;" x1="2279.66" x2="2279.66" y1="1030.79" y2="1150.12"/>
  <line id="right-margin-Bold-M" style="fill:none;stroke:#00AEEF;stroke-width:0.5;opacity:1.0;" x1="2400.29" x2="2400.29" y1="1030.79" y2="1150.12"/>
  <line id="left-margin-Heavy-M" style="fill:none;stroke:#00AEEF;stroke-width:0.5;opacity:1.0;" x1="2575.44" x2="2575.44" y1="1030.79" y2="1150.12"/>
  <line id="right-margin-Heavy-M" style="fill:none;stroke:#00AEEF;stroke-width:0.5;opacity:1.0;" x1="2697.94" x2="2697.94" y1="1030.79" y2="1150.12"/>
  <line id="left-margin-Black-M" style="fill:none;stroke:#00AEEF;stroke-width:0.5;opacity:1.0;" x1="2871.32" x2="2871.32" y1="1030.79" y2="1150.12"/>
  <line id="right-margin-Black-M" style="fill:none;stroke:#00AEEF;stroke-width:0.5;opacity:1.0;" x1="2995.48" x2="2995.48" y1="1030.79" y2="1150.12"/>
  <line id="left-margin-Ultralight-L" style="fill:none;stroke:#00AEEF;stroke-width:0.5;opacity:1.0;" x1="487.603" x2="487.603" y1="1460.79" y2="1580.12"/>
  <line id="right-margin-Ultralight-L" style="fill:none;stroke:#00AEEF;stroke-width:0.5;opacity:1.0;" x1="631.819" x2="631.819" y1="1460.79" y2="1580.12"/>
  <line id="left-margin-Thin-L" style="fill:none;stroke:#00AEEF;stroke-width:0.5;opacity:1.0;" x1="783.689" x2="783.689" y1="1460.79" y2="1580.12"/>
  <line id="right-margin-Thin-L" style="fill:none;stroke:#00AEEF;stroke-width:0.5;opacity:1.0;" x1="929.156" x2="929.156" y1="1460.79" y2="1580.12"/>
  <line id="left-margin-Light-L" style="fill:none;stroke:#00AEEF;stroke-width:0.5;opacity:1.0;" x1="1079.18" x2="1079.18" y1="1460.79" y2="1580.12"/>
  <line id="right-margin-Light-L" style="fill:none;stroke:#00AEEF;stroke-width:0.5;opacity:1.0;" x1="1227.09" x2="1227.09" y1="1460.79" y2="1580.12"/>
  <line id="left-margin-Regular-L" style="fill:none;stroke:#00AEEF;stroke-width:0.5;opacity:1.0;" x1="1374.97" x2="1374.97" y1="1460.79" y2="1580.12"/>
  <line id="right-margin-Regular-L" style="fill:none;stroke:#00AEEF;stroke-width:0.5;opacity:1.0;" x1="1524.72" x2="1524.72" y1="1460.79" y2="1580.12"/>
  <line id="left-margin-Medium-L" style="fill:none;stroke:#00AEEF;stroke-width:0.5;opacity:1.0;" x1="1670.87" x2="1670.87" y1="1460.79" y2="1580.12"/>
  <line id="right-margin-Medium-L" style="fill:none;stroke:#00AEEF;stroke-width:0.5;opacity:1.0;" x1="1822.24" x2="1822.24" y1="1460.79" y2="1580.12"/>
  <line id="left-margin-Semibold-L" style="fill:none;stroke:#00AEEF;stroke-width:0.5;opacity:1.0;" x1="1966.97" x2="1966.97" y1="1460.79" y2="1580.12"/>
  <line id="right-margin-Semibold-L" style="fill:none;stroke:#00AEEF;stroke-width:0.5;opacity:1.0;" x1="2119.57" x2="2119.57" y1="1460.79" y2="1580.12"/>
  <line id="left-margin-Bold-L" style="fill:none;stroke:#00AEEF;stroke-width:0.5;opacity:1.0;" x1="2262.87" x2="2262.87" y1="1460.79" y2="1580.12"/>
  <line id="right-margin-Bold-L" style="fill:none;stroke:#00AEEF;stroke-width:0.5;opacity:1.0;" x1="2417.09" x2="2417.09" y1="1460.79" y2="1580.12"/>
  <line id="left-margin-Heavy-L" style="fill:none;stroke:#00AEEF;stroke-width:0.5;opacity:1.0;" x1="2558.4" x2="2558.4" y1="1460.79" y2="1580.12"/>
  <line id="right-margin-Heavy-L" style="fill:none;stroke:#00AEEF;stroke-width:0.5;opacity:1.0;" x1="2714.98" x2="2714.98" y1="1460.79" y2="1580.12"/>
  <line id="left-margin-Black-L" style="fill:none;stroke:#00AEEF;stroke-width:0.5;opacity:1.0;" x1="2854.05" x2="2854.05" y1="1460.79" y2="1580.12"/>
  <line id="right-margin-Black-L" style="fill:none;stroke:#00AEEF;stroke-width:0.5;opacity:1.0;" x1="3012.75" x2="3012.75" y1="1460.79" y2="1580.12"/>
 </g>
 <g id="Symbols">
  <g id="Black-L" transform="matrix(1 0 0 1 2854.05 1556)">
   <path d="M79.3457 32.8613Q90.5762 32.8613 100.757 29.3945Q110.938 25.9277 119.458 19.6777Q127.979 13.4277 134.229 4.90723Q140.479-3.61328 143.945-13.7939Q147.412-23.9746 147.412-35.2051Q147.412-46.4355 143.945-56.6162Q140.479-66.7969 134.204-75.3174Q127.93-83.8379 119.434-90.1123Q110.938-96.3867 100.732-99.8291Q90.5273-103.271 79.2969-103.271Q68.1152-103.271 57.9102-99.8291Q47.7051-96.3867 39.209-90.1123Q30.7129-83.8379 24.4385-75.3174Q18.1641-66.7969 14.7217-56.6162Q11.2793-46.4355 11.2793-35.2051Q11.2793-23.9746 14.7217-13.7939Q18.1641-3.61328 24.4385 4.90723Q30.7129 13.4277 39.2334 19.6777Q47.7539 25.9277 57.9346 29.3945Q68.1152 32.8613 79.3457 32.8613ZM79.3457 12.4023Q71.4355 12.4023 64.2822 10.0098Q57.1289 7.61719 51.1963 3.24707Q45.2637-1.12305 40.8936-7.08008Q36.5234-13.0371 34.1309-20.166Q31.7383-27.2949 31.7383-35.2051Q31.7383-43.1152 34.1309-50.2686Q36.5234-57.4219 40.8936-63.3545Q45.2637-69.2871 51.1963-73.6572Q57.1289-78.0273 64.2578-80.4199Q71.3867-82.8125 79.2969-82.8125Q87.207-82.8125 94.3604-80.4199Q101.514-78.0273 107.471-73.6572Q113.428-69.2871 117.798-63.3545Q122.168-57.4219 124.561-50.2686Q126.953-43.1152 126.953-35.2051Q126.953-27.2949 124.561-20.166Q122.168-13.0371 117.798-7.08008Q113.428-1.12305 107.495 3.24707Q101.562 7.61719 94.4092 10.0098Q87.2559 12.4023 79.3457 12.4023Z"/>
  </g>
  <g id="Heavy-L" transform="matrix(1 0 0 1 2558.4 1556)">
   <path d="M78.2852 31.7894Q89.3318 31.7894 99.3511 28.3745Q109.37 24.9596 117.758 18.8019Q126.146 12.6442 132.31 4.25606Q138.474-4.13208 141.888-14.1571Q145.303-24.1821 145.303-35.2165Q145.303-46.2624 141.888-56.2817Q138.474-66.301 132.291-74.6891Q126.109-83.0772 117.739-89.2593Q109.37-95.4414 99.3267-98.838Q89.283-102.235 78.2364-102.235Q67.2279-102.235 57.1899-98.838Q47.1519-95.4414 38.7882-89.2593Q30.4245-83.0772 24.2424-74.6891Q18.0603-66.301 14.6698-56.2817Q11.2793-46.2624 11.2793-35.2165Q11.2793-24.1821 14.6755-14.1571Q18.0717-4.13208 24.2481 4.25606Q30.4245 12.6442 38.8126 18.8019Q47.2008 24.9596 57.2201 28.3745Q67.2394 31.7894 78.2852 31.7894ZM78.2852 14.016Q70.1103 14.016 62.7148 11.5368Q55.3192 9.05762 49.1852 4.54369Q43.0511 0.0297546 38.5311-6.12907Q34.0111-12.2879 31.538-19.6648Q29.0649-27.0416 29.0649-35.2165Q29.0649-43.4036 31.538-50.7988Q34.0111-58.194 38.5254-64.3341Q43.0397-70.4742 49.1737-74.9886Q55.3078-79.5029 62.6846-81.9759Q70.0615-84.449 78.2364-84.449Q86.4235-84.449 93.8187-81.9759Q101.214-79.5029 107.373-74.9886Q113.531-70.4742 118.046-64.3341Q122.56-58.194 125.039-50.7988Q127.518-43.4036 127.518-35.2165Q127.529-27.0416 125.056-19.6648Q122.583-12.2879 118.063-6.12907Q113.543 0.0297546 107.403 4.54369Q101.263 9.05762 93.8675 11.5368Q86.4723 14.016 78.2852 14.016Z"/>
  </g>
  <g id="Bold-L" transform="matrix(1 0 0 1 2262.87 1556)">
   <path d="M77.0996 30.5908Q87.9395 30.5908 97.7783 27.2339Q107.617 23.877 115.857 17.8223Q124.097 11.7676 130.164 3.52783Q136.23-4.71191 139.587-14.563Q142.944-24.4141 142.944-35.2295Q142.944-46.0693 139.587-55.9082Q136.23-65.7471 130.151-73.9868Q124.072-82.2266 115.845-88.3057Q107.617-94.3848 97.7539-97.7295Q87.8906-101.074 77.0508-101.074Q66.2354-101.074 56.3843-97.7295Q46.5332-94.3848 38.3179-88.3057Q30.1025-82.2266 24.0234-73.9868Q17.9443-65.7471 14.6118-55.9082Q11.2793-46.0693 11.2793-35.2295Q11.2793-24.4141 14.624-14.563Q17.9688-4.71191 24.0356 3.52783Q30.1025 11.7676 38.3423 17.8223Q46.582 23.877 56.4209 27.2339Q66.2598 30.5908 77.0996 30.5908ZM77.0996 15.8203Q68.6279 15.8203 60.9619 13.2446Q53.2959 10.6689 46.936 5.99365Q40.5762 1.31836 35.8887-5.06592Q31.2012-11.4502 28.6377-19.104Q26.0742-26.7578 26.0742-35.2295Q26.0742-43.7256 28.6377-51.3916Q31.2012-59.0576 35.8765-65.4297Q40.5518-71.8018 46.9116-76.4771Q53.2715-81.1523 60.9253-83.7158Q68.5791-86.2793 77.0508-86.2793Q85.5469-86.2793 93.2129-83.7158Q100.879-81.1523 107.263-76.4771Q113.647-71.8018 118.323-65.4297Q122.998-59.0576 125.574-51.3916Q128.149-43.7256 128.149-35.2295Q128.174-26.7578 125.61-19.104Q123.047-11.4502 118.359-5.06592Q113.672 1.31836 107.3 5.99365Q100.928 10.6689 93.2617 13.2446Q85.5957 15.8203 77.0996 15.8203Z"/>
  </g>
  <g id="Semibold-L" transform="matrix(1 0 0 1 1966.97 1556)">
   <path d="M76.2817 29.7646Q86.9797 29.7646 96.6942 26.4477Q106.409 23.1308 114.546 17.1471Q122.684 11.1633 128.684 3.02582Q134.684-5.11169 138.001-14.843Q141.318-24.5743 141.318-35.2386Q141.318-45.9358 138.001-55.6503Q134.684-65.3648 128.676-73.5023Q122.668-81.6399 114.539-87.648Q106.409-93.6562 96.6698-96.9654Q86.9308-100.275 76.2329-100.275Q65.551-100.275 55.8289-96.9654Q46.1067-93.6562 37.9936-87.648Q29.8805-81.6399 23.8724-73.5023Q17.8642-65.3648 14.5718-55.6503Q11.2793-45.9358 11.2793-35.2386Q11.2793-24.5743 14.5885-14.843Q17.8978-5.11169 23.8892 3.02582Q29.8805 11.1633 38.018 17.1471Q46.1555 23.1308 55.8701 26.4477Q65.5846 29.7646 76.2817 29.7646ZM76.2817 17.0647Q67.6056 17.0647 59.753 14.4222Q51.9005 11.7798 45.3854 6.99348Q38.8702 2.20718 34.0672-4.33273Q29.2641-10.8727 26.6384-18.7176Q24.0128-26.5625 24.0128-35.2386Q24.0128-43.9476 26.6384-51.8002Q29.2641-59.6527 34.0504-66.185Q38.8367-72.7173 45.3522-77.5036Q51.8677-82.2899 59.7122-84.9155Q67.5568-87.5412 76.2329-87.5412Q84.9426-87.5412 92.7952-84.9155Q100.648-82.2899 107.188-77.5036Q113.728-72.7173 118.514-66.185Q123.3-59.6527 125.943-51.8002Q128.585-43.9476 128.585-35.2386Q128.618-26.5625 125.992-18.7176Q123.367-10.8727 118.563-4.33273Q113.76 2.20718 107.228 6.99348Q100.697 11.7798 92.844 14.4222Q84.9915 17.0647 76.2817 17.0647Z"/>
  </g>
  <g id="Medium-L" transform="matrix(1 0 0 1 1670.87 1556)">
   <path d="M75.6622 29.1374Q86.2518 29.1374 95.8721 25.8511Q105.492 22.5647 113.552 16.6348Q121.613 10.7048 127.562 2.64473Q133.511-5.41534 136.798-15.0555Q140.085-24.6956 140.085-35.2448Q140.085-45.8351 136.798-55.455Q133.511-65.0749 127.557-73.135Q121.603-81.1951 113.548-87.1494Q105.492-93.1038 95.8477-96.386Q86.203-99.6681 75.6134-99.6681Q65.0322-99.6681 55.4077-96.386Q45.7832-93.1038 37.7476-87.1494Q29.7119-81.1951 23.7579-73.135Q17.804-65.0749 14.5416-55.455Q11.2793-45.8351 11.2793-35.2448Q11.2793-24.6956 14.5615-15.0555Q17.8436-5.41534 23.7778 2.64473Q29.7119 10.7048 37.772 16.6348Q45.8321 22.5647 55.452 25.8511Q65.0719 29.1374 75.6622 29.1374ZM75.6622 18.0077Q66.8312 18.0077 58.8371 15.3149Q50.843 12.6221 44.2097 7.75146Q37.5763 2.88086 32.6855-3.77693Q27.7946-10.4347 25.1221-18.4242Q22.4495-26.4137 22.4495-35.2448Q22.4495-44.1162 25.1221-52.1103Q27.7946-60.1044 32.6653-66.7576Q37.5359-73.4108 44.1692-78.2818Q50.8026-83.1528 58.7925-85.8253Q66.7824-88.4979 75.6134-88.4979Q84.4841-88.4979 92.4786-85.8253Q100.473-83.1528 107.13-78.2818Q113.788-73.4108 118.658-66.7576Q123.529-60.1044 126.222-52.1103Q128.915-44.1162 128.915-35.2448Q128.955-26.4137 126.282-18.4242Q123.609-10.4347 118.719-3.77693Q113.828 2.88086 107.175 7.75146Q100.522 12.6221 92.5274 15.3149Q84.5329 18.0077 75.6622 18.0077Z"/>
  </g>
  <g id="Regular-L" transform="matrix(1 0 0 1 1374.97 1556)">
   <path d="M74.8535 28.3203Q85.3027 28.3203 94.7998 25.0732Q104.297 21.8262 112.256 15.9668Q120.215 10.1074 126.099 2.14844Q131.982-5.81055 135.229-15.332Q138.477-24.8535 138.477-35.2539Q138.477-45.7031 135.229-55.2002Q131.982-64.6973 126.099-72.6562Q120.215-80.6152 112.256-86.499Q104.297-92.3828 94.7754-95.6299Q85.2539-98.877 74.8047-98.877Q64.3555-98.877 54.8584-95.6299Q45.3613-92.3828 37.4268-86.499Q29.4922-80.6152 23.6084-72.6562Q17.7246-64.6973 14.502-55.2002Q11.2793-45.7031 11.2793-35.2539Q11.2793-24.8535 14.5264-15.332Q17.7734-5.81055 23.6328 2.14844Q29.4922 10.1074 37.4512 15.9668Q45.4102 21.8262 54.9072 25.0732Q64.4043 28.3203 74.8535 28.3203ZM74.8535 19.2383Q65.8203 19.2383 57.6416 16.4795Q49.4629 13.7207 42.6758 8.74023Q35.8887 3.75977 30.8838-3.05176Q25.8789-9.86328 23.1445-18.042Q20.4102-26.2207 20.4102-35.2539Q20.4102-44.3359 23.1445-52.5146Q25.8789-60.6934 30.8594-67.5049Q35.8398-74.3164 42.627-79.2969Q49.4141-84.2773 57.5928-87.0117Q65.7715-89.7461 74.8047-89.7461Q83.8867-89.7461 92.0654-87.0117Q100.244-84.2773 107.056-79.2969Q113.867-74.3164 118.848-67.5049Q123.828-60.6934 126.587-52.5146Q129.346-44.3359 129.346-35.2539Q129.395-26.2207 126.66-18.042Q123.926-9.86328 118.921-3.05176Q113.916 3.75977 107.104 8.74023Q100.293 13.7207 92.1143 16.4795Q83.9355 19.2383 74.8535 19.2383Z"/>
  </g>
  <g id="Light-L" transform="matrix(1 0 0 1 1079.18 1556)">
   <path d="M73.9304 27.3972Q84.243 27.3972 93.6115 24.2031Q102.98 21.0091 110.818 15.2405Q118.656 9.47189 124.449 1.62621Q130.241-6.21948 133.436-15.5972Q136.63-24.9748 136.63-35.2539Q136.63-45.5666 133.436-54.9351Q130.241-64.3036 124.456-72.1416Q118.671-79.9797 110.825-85.7727Q102.98-91.5657 93.5947-94.7598Q84.2094-97.9538 73.8968-97.9538Q63.5834-97.9538 54.2225-94.7598Q44.8616-91.5657 37.0331-85.7727Q29.2046-79.9797 23.4192-72.1416Q17.6338-64.3036 14.4566-54.9351Q11.2793-45.5666 11.2793-35.2539Q11.2793-24.9748 14.4733-15.5972Q17.6674-6.21948 23.436 1.62621Q29.2046 9.47189 37.0499 15.2405Q44.8952 21.0091 54.2561 24.2031Q63.6169 27.3972 73.9304 27.3972ZM73.9304 20.5101Q64.7003 20.5101 56.3324 17.683Q47.9645 14.856 41.0107 9.75456Q34.0569 4.65317 28.931-2.31743Q23.8052-9.28802 21.0026-17.6559Q18.1999-26.0239 18.1999-35.2539Q18.1999-44.5328 21.0026-52.8931Q23.8052-61.2534 28.9143-68.224Q34.0233-75.1945 40.9847-80.3036Q47.9462-85.4126 56.3065-88.2225Q64.6667-91.0324 73.8968-91.0324Q83.1757-91.0324 91.5359-88.2225Q99.8962-85.4126 106.866-80.3036Q113.837-75.1945 118.946-68.224Q124.055-61.2534 126.882-52.8931Q129.709-44.5328 129.709-35.2539Q129.727-26.0239 126.925-17.6559Q124.123-9.28802 118.996-2.31743Q113.87 4.65317 106.9 9.75456Q99.9298 14.856 91.5695 17.683Q83.2092 20.5101 73.9304 20.5101Z"/>
  </g>
  <g id="Thin-L" transform="matrix(1 0 0 1 783.689 1556)">
   <path d="M72.7089 26.1757Q82.8423 26.1757 92.0403 23.0518Q101.238 19.928 108.916 14.2796Q116.594 8.63113 122.267 0.935745Q127.94-6.75964 131.063-15.9473Q134.187-25.135 134.187-35.2539Q134.187-45.3865 131.063-54.5849Q127.94-63.7833 122.284-71.4611Q116.629-79.1389 108.934-84.8118Q101.238-90.4846 92.0334-93.6085Q82.8285-96.7323 72.6952-96.7323Q62.5626-96.7323 53.3817-93.6085Q44.2009-90.4846 36.5128-84.8118Q28.8246-79.1389 23.1693-71.4611Q17.514-63.7833 14.3967-54.5849Q11.2793-45.3865 11.2793-35.2539Q11.2793-25.135 14.4032-15.9473Q17.527-6.75964 23.1758 0.935745Q28.8246 8.63113 36.5196 14.2796Q44.2146 19.928 53.3955 23.0518Q62.5763 26.1757 72.7089 26.1757ZM72.7089 22.1916Q63.2187 22.1916 54.6005 19.2745Q45.9824 16.3574 38.8088 11.0958Q31.6353 5.8342 26.3489-1.34659Q21.0625-8.52737 18.1702-17.1455Q15.2779-25.7637 15.2779-35.2539Q15.2779-44.7929 18.1702-53.3936Q21.0625-61.9942 26.342-69.175Q31.6216-76.3557 38.8126-81.6349Q46.0037-86.9141 54.6043-89.8243Q63.205-92.7345 72.6952-92.7345Q82.2342-92.7345 90.8348-89.8243Q99.4354-86.9141 106.616-81.6349Q113.797-76.3557 119.076-69.175Q124.355-61.9942 127.272-53.3936Q130.19-44.7929 130.19-35.2539Q130.168-25.7637 127.275-17.1455Q124.383-8.52737 119.097-1.34659Q113.811 5.8342 106.63 11.0958Q99.4492 16.3574 90.8485 19.2745Q82.2479 22.1916 72.7089 22.1916Z"/>
  </g>
  <g id="Ultralight-L" transform="matrix(1 0 0 1 487.603 1556)">
   <path d="M72.0833 25.5501Q82.1243 25.5501 91.2354 22.4621Q100.346 19.3741 107.942 13.7871Q115.537 8.20007 121.149 0.581741Q126.76-7.03659 129.848-16.1266Q132.937-25.2167 132.937-35.2539Q132.937-45.2942 129.848-54.4052Q126.76-63.5162 121.172-71.1121Q115.583-78.7079 107.965-84.3193Q100.346-89.9307 91.2334-93.0187Q82.1205-96.1067 72.0802-96.1067Q62.0399-96.1067 52.9514-93.0187Q43.8629-89.9307 36.2461-84.3193Q28.6293-78.7079 23.0408-71.1121Q17.4522-63.5162 14.3658-54.4052Q11.2793-45.2942 11.2793-35.2539Q11.2793-25.2167 14.3673-16.1266Q17.4553-7.03659 23.0423 0.581741Q28.6293 8.20007 36.2476 13.7871Q43.866 19.3741 52.9545 22.4621Q62.043 25.5501 72.0833 25.5501ZM72.0833 23.053Q62.4603 23.053 53.714 20.0897Q44.9677 17.1265 37.6808 11.7828Q30.394 6.43921 25.0259-0.849152Q19.6579-8.13751 16.7191-16.8839Q13.7802-25.6302 13.7802-35.2539Q13.7802-44.9265 16.7191-53.6499Q19.6579-62.3734 25.0244-69.6617Q30.3909-76.9501 37.7003-82.3166Q45.0096-87.6831 53.7331-90.6445Q62.4565-93.6058 72.0802-93.6058Q81.7528-93.6058 90.4762-90.6445Q99.1997-87.6831 106.488-82.3166Q113.776-76.9501 119.143-69.6617Q124.509-62.3734 127.472-53.6499Q130.435-44.9265 130.435-35.2539Q130.393-25.6302 127.455-16.8839Q124.516-8.13751 119.148-0.849152Q113.779 6.43921 106.491 11.7828Q99.2035 17.1265 90.4797 20.0897Q81.7558 23.053 72.0833 23.053Z"/>
  </g>
  <g id="Black-M" transform="matrix(1 0 0 1 2871.32 1126)">
   <path d="M62.0605 18.1152Q73.0957 18.1152 82.7637 13.9648Q92.4316 9.81445 99.7559 2.46582Q107.08-4.88281 111.255-14.5264Q115.43-24.1699 115.43-35.2051Q115.43-46.2402 111.255-55.8838Q107.08-65.5273 99.7559-72.876Q92.4316-80.2246 82.7637-84.375Q73.0957-88.5254 62.0605-88.5254Q51.0742-88.5254 41.4062-84.375Q31.7383-80.2246 24.3896-72.876Q17.041-65.5273 12.8906-55.8838Q8.74023-46.2402 8.74023-35.2051Q8.74023-24.1699 12.8906-14.5264Q17.041-4.88281 24.3896 2.46582Q31.7383 9.81445 41.4062 13.9648Q51.0742 18.1152 62.0605 18.1152ZM62.0605 0.732422Q54.6387 0.732422 48.1201-2.05078Q41.6016-4.83398 36.6455-9.76562Q31.6895-14.6973 28.9062-21.2158Q26.123-27.7344 26.123-35.2051Q26.123-42.6758 28.9062-49.1943Q31.6895-55.7129 36.6455-60.6445Q41.6016-65.5762 48.1201-68.3594Q54.6387-71.1426 62.0605-71.1426Q69.5312-71.1426 76.0498-68.3594Q82.5684-65.5762 87.5-60.6445Q92.4316-55.7129 95.2393-49.1943Q98.0469-42.6758 98.0469-35.2051Q98.0469-27.7344 95.2393-21.2158Q92.4316-14.6973 87.5-9.76562Q82.5684-4.83398 76.0498-2.05078Q69.5312 0.732422 62.0605 0.732422Z"/>
  </g>
  <g id="Heavy-M" transform="matrix(1 0 0 1 2575.44 1126)">
   <path d="M61.2305 17.2737Q72.0703 17.2737 81.5826 13.1809Q91.095 9.08813 98.3154 1.84898Q105.536-5.39017 109.647-14.8838Q113.759-24.3774 113.759-35.2165Q113.759-46.0556 109.647-55.5496Q105.536-65.0436 98.3154-72.2828Q91.095-79.5219 81.5769-83.6147Q72.0589-87.7075 61.219-87.7075Q50.4173-87.7075 40.905-83.6147Q31.3927-79.5219 24.1592-72.2828Q16.9258-65.0436 12.833-55.5496Q8.74023-46.0556 8.74023-35.2165Q8.74023-24.3774 12.833-14.8838Q16.9258-5.39017 24.165 1.84898Q31.4041 9.08813 40.9164 13.1809Q50.4288 17.2737 61.2305 17.2737ZM61.2305 2.03476Q53.521 2.03476 46.7659-0.852203Q40.0108-3.73917 34.882-8.84933Q29.7531-13.9595 26.8719-20.7146Q23.9906-27.4696 23.9906-35.2165Q23.9906-42.9642 26.8719-49.7189Q29.7531-56.4735 34.8763-61.5894Q39.9994-66.7053 46.7545-69.5866Q53.5095-72.4678 61.219-72.4678Q68.9667-72.4678 75.7214-69.5866Q82.476-66.7053 87.5923-61.5894Q92.7086-56.4735 95.6139-49.7189Q98.5191-42.9642 98.5191-35.2165Q98.5191-27.4696 95.6196-20.7146Q92.72-13.9595 87.6095-8.84933Q82.4989-3.73917 75.7385-0.852203Q68.9781 2.03476 61.2305 2.03476Z"/>
  </g>
  <g id="Bold-M" transform="matrix(1 0 0 1 2279.66 1126)">
   <path d="M60.3027 16.333Q70.9229 16.333 80.2612 12.3047Q89.5996 8.27637 96.7041 1.15967Q103.809-5.95703 107.849-15.2832Q111.89-24.6094 111.89-35.2295Q111.89-45.8496 107.849-55.1758Q103.809-64.502 96.7041-71.6187Q89.5996-78.7354 80.249-82.7637Q70.8984-86.792 60.2783-86.792Q49.6826-86.792 40.3442-82.7637Q31.0059-78.7354 23.9014-71.6187Q16.7969-64.502 12.7686-55.1758Q8.74023-45.8496 8.74023-35.2295Q8.74023-24.6094 12.7686-15.2832Q16.7969-5.95703 23.9136 1.15967Q31.0303 8.27637 40.3687 12.3047Q49.707 16.333 60.3027 16.333ZM60.3027 3.49121Q52.2705 3.49121 45.2515 0.488281Q38.2324-2.51465 32.9102-7.82471Q27.5879-13.1348 24.5972-20.1538Q21.6064-27.1729 21.6064-35.2295Q21.6064-43.2861 24.5972-50.3052Q27.5879-57.3242 32.8979-62.6465Q38.208-67.9688 45.2271-70.9595Q52.2461-73.9502 60.2783-73.9502Q68.335-73.9502 75.354-70.9595Q82.373-67.9688 87.6953-62.6465Q93.0176-57.3242 96.0327-50.3052Q99.0479-43.2861 99.0479-35.2295Q99.0479-27.1729 96.0449-20.1538Q93.042-13.1348 87.7319-7.82471Q82.4219-2.51465 75.3906 0.488281Q68.3594 3.49121 60.3027 3.49121Z"/>
  </g>
  <g id="Semibold-M" transform="matrix(1 0 0 1 1983.6 1126)">
   <path d="M59.6626 15.6845Q70.1317 15.6845 79.3503 11.7004Q88.5689 7.71637 95.5933 0.683975Q102.618-6.34842 106.609-15.559Q110.601-24.7696 110.601-35.2386Q110.601-45.7077 106.609-54.9183Q102.618-64.1289 95.5933-71.1609Q88.5689-78.1929 79.3339-82.177Q70.0989-86.161 59.6298-86.161Q49.176-86.161 39.9578-82.177Q30.7396-78.1929 23.724-71.1609Q16.7084-64.1289 12.7243-54.9183Q8.74023-45.7077 8.74023-35.2386Q8.74023-24.7696 12.7243-15.559Q16.7084-6.34842 23.7404 0.683975Q30.7724 7.71637 39.991 11.7004Q49.2096 15.6845 59.6626 15.6845ZM59.6626 4.49524Q51.4084 4.49524 44.2074 1.41258Q37.0064-1.67007 31.5506-7.11823Q26.0948-12.5664 23.0286-19.7674Q19.9623-26.9684 19.9623-35.2386Q19.9623-43.5081 23.0286-50.7095Q26.0948-57.9109 31.5338-63.3755Q36.9728-68.84 44.1738-71.9063Q51.3748-74.9725 59.6298-74.9725Q67.8993-74.9725 75.1007-71.9063Q82.3021-68.84 87.7666-63.3755Q93.2312-57.9109 96.3219-50.7095Q99.4125-43.5081 99.4125-35.2386Q99.4125-26.9684 96.3383-19.7674Q93.264-12.5664 87.8162-7.11823Q82.3685-1.67007 75.1507 1.41258Q67.9329 4.49524 59.6626 4.49524Z"/>
  </g>
  <g id="Medium-M" transform="matrix(1 0 0 1 1687.37 1126)">
   <path d="M59.1774 15.1924Q69.532 15.1924 78.6594 11.2423Q87.7869 7.29218 94.751 0.323868Q101.715-6.64444 105.669-15.7677Q109.624-24.8909 109.624-35.2448Q109.624-45.5994 105.669-54.7226Q101.715-63.8458 94.751-70.8141Q87.7869-77.7824 78.6396-81.7326Q69.4923-85.6827 59.1377-85.6827Q48.7923-85.6827 39.6648-81.7326Q30.5374-77.7824 23.5889-70.8141Q16.6405-63.8458 12.6904-54.7226Q8.74023-45.5994 8.74023-35.2448Q8.74023-24.8909 12.6904-15.7677Q16.6405-6.64444 23.6088 0.323868Q30.5771 7.29218 39.7045 11.2423Q48.8319 15.1924 59.1774 15.1924ZM59.1774 5.25665Q50.7545 5.25665 43.4155 2.11334Q36.0764-1.02997 30.5195-6.58226Q24.9626-12.1346 21.8391-19.474Q18.7157-26.8135 18.7157-35.2448Q18.7157-43.6768 21.8391-51.0162Q24.9626-58.3557 30.4993-63.9278Q36.0359-69.5 43.3754-72.6234Q50.7149-75.7469 59.1377-75.7469Q67.569-75.7469 74.9084-72.6234Q82.2479-69.5 87.8204-63.9278Q93.3929-58.3557 96.5408-51.0162Q99.6887-43.6768 99.6887-35.2448Q99.6887-26.8135 96.5607-19.474Q93.4326-12.1346 87.8803-6.58226Q82.328-1.02997 74.9687 2.11334Q67.6094 5.25665 59.1774 5.25665Z"/>
  </g>
  <g id="Regular-M" transform="matrix(1 0 0 1 1391.3 1126)">
   <path d="M58.5449 14.5508Q68.75 14.5508 77.7588 10.6445Q86.7676 6.73828 93.6523-0.146484Q100.537-7.03125 104.443-16.04Q108.35-25.0488 108.35-35.2539Q108.35-45.459 104.443-54.4678Q100.537-63.4766 93.6523-70.3613Q86.7676-77.2461 77.7344-81.1523Q68.7012-85.0586 58.4961-85.0586Q48.291-85.0586 39.2822-81.1523Q30.2734-77.2461 23.4131-70.3613Q16.5527-63.4766 12.6465-54.4678Q8.74023-45.459 8.74023-35.2539Q8.74023-25.0488 12.6465-16.04Q16.5527-7.03125 23.4375-0.146484Q30.3223 6.73828 39.3311 10.6445Q48.3398 14.5508 58.5449 14.5508ZM58.5449 6.25Q49.9023 6.25 42.3828 3.02734Q34.8633-0.195312 29.1748-5.88379Q23.4863-11.5723 20.2881-19.0918Q17.0898-26.6113 17.0898-35.2539Q17.0898-43.8965 20.2881-51.416Q23.4863-58.9355 29.1504-64.6484Q34.8145-70.3613 42.334-73.5596Q49.8535-76.7578 58.4961-76.7578Q67.1387-76.7578 74.6582-73.5596Q82.1777-70.3613 87.8906-64.6484Q93.6035-58.9355 96.8262-51.416Q100.049-43.8965 100.049-35.2539Q100.049-26.6113 96.8506-19.0918Q93.6523-11.5723 87.9639-5.88379Q82.2754-0.195312 74.7314 3.02734Q67.1875 6.25 58.5449 6.25Z"/>
  </g>
  <g id="Light-M" transform="matrix(1 0 0 1 1095.41 1126)">
   <path d="M57.7126 13.7184Q67.7811 13.7184 76.6384 9.8877Q85.4958 6.05698 92.2596-0.706482Q99.0234-7.46994 102.861-16.3349Q106.699-25.1999 106.699-35.2539Q106.699-45.3079 102.861-54.1729Q99.0234-63.0379 92.2596-69.8013Q85.4958-76.5648 76.6216-80.3955Q67.7475-84.2262 57.679-84.2262Q47.625-84.2262 38.76-80.3955Q29.895-76.5648 23.1556-69.8013Q16.4162-63.0379 12.5782-54.1729Q8.74023-45.3079 8.74023-35.2539Q8.74023-25.1999 12.571-16.3349Q16.4017-7.46994 23.1651-0.706482Q29.9286 6.05698 38.7936 9.8877Q47.6585 13.7184 57.7126 13.7184ZM57.7126 7.38525Q48.8579 7.38525 41.1339 4.07181Q33.4099 0.758362 27.5551-5.08919Q21.7003-10.9367 18.4036-18.668Q15.107-26.3992 15.107-35.2539Q15.107-44.1086 18.4036-51.8398Q21.7003-59.5711 27.5383-65.443Q33.3763-71.315 41.1003-74.6117Q48.8243-77.9083 57.679-77.9083Q66.5482-77.9083 74.2722-74.6117Q81.9962-71.315 87.8681-65.443Q93.7401-59.5711 97.0535-51.8398Q100.367-44.1086 100.367-35.2539Q100.367-26.3992 97.0703-18.668Q93.7737-10.9367 87.9185-5.08919Q82.0633 0.758362 74.3225 4.07181Q66.5817 7.38525 57.7126 7.38525Z"/>
  </g>
  <g id="Thin-M" transform="matrix(1 0 0 1 799.793 1126)">
   <path d="M56.6116 12.6175Q66.5001 12.6175 75.1572 8.88672Q83.8142 5.15594 90.4179-1.4473Q97.0215-8.05054 100.769-16.7255Q104.517-25.4005 104.517-35.2539Q104.517-45.1073 100.769-53.7823Q97.0215-62.4573 90.4179-69.0605Q83.8142-75.6638 75.1503-79.3945Q66.4864-83.1253 56.5979-83.1253Q46.7445-83.1253 38.0695-79.3945Q29.3945-75.6638 22.8153-69.0605Q16.2361-62.4573 12.4882-53.7823Q8.74023-45.1073 8.74023-35.2539Q8.74023-25.4005 12.4706-16.7255Q16.201-8.05054 22.8046-1.4473Q29.4083 5.15594 38.0829 8.88672Q46.7575 12.6175 56.6116 12.6175ZM56.6116 8.88672Q47.477 8.88672 39.4829 5.45311Q31.4888 2.0195 25.4135-4.03824Q19.3382-10.096 15.9115-18.1076Q12.4847-26.1192 12.4847-35.2539Q12.4847-44.3886 15.9115-52.4002Q19.3382-60.4118 25.4066-66.494Q31.4751-72.5761 39.4691-76.0029Q47.4632-79.4296 56.5979-79.4296Q65.7677-79.4296 73.7617-76.0029Q81.7558-72.5761 87.838-66.494Q93.9201-60.4118 97.3537-52.4002Q100.787-44.3886 100.787-35.2539Q100.787-26.1192 97.3606-18.1076Q93.9339-10.096 87.8586-4.03824Q81.7833 2.0195 73.7823 5.45311Q65.7814 8.88672 56.6116 8.88672Z"/>
  </g>
  <g id="Ultralight-M" transform="matrix(1 0 0 1 503.641 1126)">
   <path d="M56.0471 12.0529Q65.844 12.0529 74.3984 8.37402Q82.9529 4.69513 89.4745-1.82648Q95.9961-8.34808 99.6979-16.9254Q103.4-25.5028 103.4-35.2539Q103.4-45.005 99.6979-53.5824Q95.9961-62.1597 89.4745-68.6813Q82.9529-75.2029 74.3965-78.8818Q65.8401-82.5607 56.044-82.5607Q46.2929-82.5607 37.7155-78.8818Q29.1382-75.2029 22.641-68.6813Q16.1438-62.1597 12.442-53.5824Q8.74023-45.005 8.74023-35.2539Q8.74023-25.5028 12.4195-16.9254Q16.0988-8.34808 22.62-1.82648Q29.1412 4.69513 37.719 8.37402Q46.2967 12.0529 56.0471 12.0529ZM56.0471 9.65576Q46.769 9.65576 38.6364 6.16074Q30.5038 2.66571 24.316-3.4996Q18.1282-9.66492 14.6347-17.8204Q11.1412-25.9758 11.1412-35.2539Q11.1412-44.532 14.6347-52.6875Q18.1282-60.8429 24.3145-67.0326Q30.5008-73.2224 38.6333-76.7155Q46.7659-80.2086 56.044-80.2086Q65.3679-80.2086 73.5004-76.7155Q81.633-73.2224 87.8227-67.0326Q94.0125-60.8429 97.5075-52.6875Q101.003-44.532 101.003-35.2539Q101.003-25.9758 97.509-17.8204Q94.0155-9.66492 87.8277-3.4996Q81.6399 2.66571 73.5054 6.16074Q65.3709 9.65576 56.0471 9.65576Z"/>
  </g>
  <g id="Black-S" transform="matrix(1 0 0 1 2884.57 696)">
   <path d="M48.8281 6.78711Q57.5195 6.78711 65.1123 3.51562Q72.7051 0.244141 78.4912-5.54199Q84.2773-11.3281 87.5488-18.9209Q90.8203-26.5137 90.8203-35.2051Q90.8203-43.8965 87.5488-51.4893Q84.2773-59.082 78.4912-64.8682Q72.7051-70.6543 65.1123-73.9258Q57.5195-77.1973 48.8281-77.1973Q40.1367-77.1973 32.5439-73.9258Q24.9512-70.6543 19.165-64.8682Q13.3789-59.082 10.1074-51.4893Q6.83594-43.8965 6.83594-35.2051Q6.83594-26.5137 10.1074-18.9209Q13.3789-11.3281 19.165-5.54199Q24.9512 0.244141 32.5439 3.51562Q40.1367 6.78711 48.8281 6.78711ZM48.8281-7.37305Q43.0664-7.37305 38.0127-9.5459Q32.959-11.7188 29.1504-15.5273Q25.3418-19.3359 23.1689-24.3896Q20.9961-29.4434 20.9961-35.2051Q20.9961-40.9668 23.1689-46.0205Q25.3418-51.0742 29.1504-54.8828Q32.959-58.6914 38.0127-60.8643Q43.0664-63.0371 48.8281-63.0371Q54.5898-63.0371 59.6436-60.8643Q64.6973-58.6914 68.5059-54.8828Q72.3145-51.0742 74.4873-46.0205Q76.6602-40.9668 76.6602-35.2051Q76.6602-29.4434 74.4873-24.3896Q72.3145-19.3359 68.5059-15.5273Q64.6973-11.7188 59.6436-9.5459Q54.5898-7.37305 48.8281-7.37305Z"/>
  </g>
  <g id="Heavy-S" transform="matrix(1 0 0 1 2588.47 696)">
   <path d="M48.217 6.16455Q56.7703 6.16455 64.2536 2.93922Q71.7369-0.286102 77.4426-5.99709Q83.1482-11.7081 86.3792-19.1914Q89.6103-26.6747 89.6103-35.2165Q89.6103-43.7584 86.3792-51.2417Q83.1482-58.725 77.4368-64.436Q71.7255-70.1469 64.2422-73.3727Q56.7589-76.5984 48.2056-76.5984Q39.6645-76.5984 32.1812-73.3727Q24.6979-70.1469 18.998-64.436Q13.298-58.725 10.067-51.2417Q6.83594-43.7584 6.83594-35.2165Q6.83594-26.6747 10.067-19.1914Q13.298-11.7081 19.0037-5.99709Q24.7093-0.286102 32.1926 2.93922Q39.6759 6.16455 48.217 6.16455ZM48.217-6.40488Q42.2485-6.40488 37.0216-8.64677Q31.7947-10.8887 27.8538-14.8357Q23.9128-18.7828 21.6709-24.015Q19.429-29.2473 19.429-35.2165Q19.429-41.1858 21.6652-46.418Q23.9014-51.6502 27.8423-55.5973Q31.7833-59.5444 37.0098-61.7863Q42.2363-64.0282 48.2056-64.0282Q54.1862-64.0282 59.4128-61.7863Q64.6393-59.5444 68.5863-55.5973Q72.5334-51.6502 74.781-46.418Q77.0287-41.1858 77.0287-35.2165Q77.0287-29.2473 74.7868-24.015Q72.5449-18.7828 68.6039-14.8357Q64.6629-10.8887 59.4303-8.64677Q54.1977-6.40488 48.217-6.40488Z"/>
  </g>
  <g id="Bold-S" transform="matrix(1 0 0 1 2292.43 696)">
   <path d="M47.5342 5.46875Q55.9326 5.46875 63.2935 2.29492Q70.6543-0.878906 76.2695-6.50635Q81.8848-12.1338 85.0708-19.4946Q88.2568-26.8555 88.2568-35.2295Q88.2568-43.6035 85.0708-50.9644Q81.8848-58.3252 76.2573-63.9526Q70.6299-69.5801 63.269-72.7539Q55.9082-75.9277 47.5098-75.9277Q39.1357-75.9277 31.7749-72.7539Q24.4141-69.5801 18.811-63.9526Q13.208-58.3252 10.022-50.9644Q6.83594-43.6035 6.83594-35.2295Q6.83594-26.8555 10.022-19.4946Q13.208-12.1338 18.8232-6.50635Q24.4385-0.878906 31.7993 2.29492Q39.1602 5.46875 47.5342 5.46875ZM47.5342-5.32227Q41.333-5.32227 35.9131-7.6416Q30.4932-9.96094 26.4038-14.0625Q22.3145-18.1641 19.9951-23.5962Q17.6758-29.0283 17.6758-35.2295Q17.6758-41.4307 19.9829-46.8628Q22.29-52.2949 26.3794-56.3965Q30.4688-60.498 35.8887-62.8174Q41.3086-65.1367 47.5098-65.1367Q53.7354-65.1367 59.1553-62.8174Q64.5752-60.498 68.6768-56.3965Q72.7783-52.2949 75.1099-46.8628Q77.4414-41.4307 77.4414-35.2295Q77.4414-29.0283 75.1221-23.5962Q72.8027-18.1641 68.7134-14.0625Q64.624-9.96094 59.1919-7.6416Q53.7598-5.32227 47.5342-5.32227Z"/>
  </g>
  <g id="Semibold-S" transform="matrix(1 0 0 1 1996.19 696)">
   <path d="M47.0634 4.98886Q55.3551 4.98886 62.6316 1.85051Q69.9081-1.28784 75.4608-6.8573Q81.0135-12.4268 84.1686-19.7033Q87.3238-26.9798 87.3238-35.2386Q87.3238-43.4967 84.1686-50.7732Q81.0135-58.0498 75.444-63.6192Q69.8746-69.1887 62.598-72.327Q55.3215-75.4654 47.0299-75.4654Q38.7711-75.4654 31.4949-72.327Q24.2188-69.1887 18.6821-63.6192Q13.1454-58.0498 9.99069-50.7732Q6.83594-43.4967 6.83594-35.2386Q6.83594-26.9798 9.99069-19.7033Q13.1454-12.4268 18.6985-6.8573Q24.2516-1.28784 31.5281 1.85051Q38.8046 4.98886 47.0634 4.98886ZM47.0634-4.57611Q40.7021-4.57611 35.149-6.94847Q29.5959-9.32083 25.4044-13.5292Q21.2128-17.7376 18.84-23.3074Q16.4673-28.8773 16.4673-35.2386Q16.4673-41.5993 18.8232-47.1691Q21.1792-52.739 25.3708-56.9473Q29.5624-61.1557 35.1154-63.5284Q40.6685-65.9012 47.0299-65.9012Q53.4241-65.9012 58.9775-63.5284Q64.5309-61.1557 68.7389-56.9473Q72.9469-52.739 75.3365-47.1691Q77.726-41.5993 77.726-35.2386Q77.726-28.8773 75.3532-23.3074Q72.9805-17.7376 68.7889-13.5292Q64.5973-9.32083 59.0275-6.94847Q53.4576-4.57611 47.0634-4.57611Z"/>
  </g>
  <g id="Medium-S" transform="matrix(1 0 0 1 1699.83 696)">
   <path d="M46.7064 4.62494Q54.9171 4.62494 62.1296 1.51367Q69.342-1.5976 74.8478-7.12357Q80.3535-12.6495 83.485-19.862Q86.6165-27.0744 86.6165-35.2448Q86.6165-43.4158 83.485-50.6283Q80.3535-57.8407 74.8276-63.3667Q69.3016-68.8927 62.0892-72.0039Q54.8767-75.1152 46.666-75.1152Q38.4949-75.1152 31.2824-72.0039Q24.07-68.8927 18.5844-63.3667Q13.0989-57.8407 9.96742-50.6283Q6.83594-43.4158 6.83594-35.2448Q6.83594-27.0744 9.96742-19.862Q13.0989-12.6495 18.6047-7.12357Q24.1104-1.5976 31.3229 1.51367Q38.5353 4.62494 46.7064 4.62494ZM46.7064-4.01001Q40.2237-4.01001 34.5692-6.42281Q28.9146-8.8356 24.6456-13.1248Q20.3766-17.4141 17.9638-23.0885Q15.551-28.7628 15.551-35.2448Q15.551-41.7274 17.944-47.4018Q20.3369-53.0762 24.6059-57.3654Q28.875-61.6547 34.5291-64.0675Q40.1833-66.4803 46.666-66.4803Q53.1883-66.4803 58.8428-64.0675Q64.4974-61.6547 68.7862-57.3654Q73.0751-53.0762 75.5081-47.4018Q77.9411-41.7274 77.9411-35.2448Q77.9411-28.7628 75.5283-23.0885Q73.1155-17.4141 68.8465-13.1248Q64.5775-8.8356 58.9031-6.42281Q53.2288-4.01001 46.7064-4.01001Z"/>
  </g>
  <g id="Regular-S" transform="matrix(1 0 0 1 1403.58 696)">
   <path d="M46.2402 4.15039Q54.3457 4.15039 61.4746 1.07422Q68.6035-2.00195 74.0479-7.4707Q79.4922-12.9395 82.5928-20.0684Q85.6934-27.1973 85.6934-35.2539Q85.6934-43.3105 82.5928-50.4395Q79.4922-57.5684 74.0234-63.0371Q68.5547-68.5059 61.4258-71.582Q54.2969-74.6582 46.1914-74.6582Q38.1348-74.6582 31.0059-71.582Q23.877-68.5059 18.457-63.0371Q13.0371-57.5684 9.93652-50.4395Q6.83594-43.3105 6.83594-35.2539Q6.83594-27.1973 9.93652-20.0684Q13.0371-12.9395 18.4814-7.4707Q23.9258-2.00195 31.0547 1.07422Q38.1836 4.15039 46.2402 4.15039ZM46.2402-3.27148Q39.5996-3.27148 33.8135-5.7373Q28.0273-8.20312 23.6572-12.5977Q19.2871-16.9922 16.8213-22.8027Q14.3555-28.6133 14.3555-35.2539Q14.3555-41.8945 16.7969-47.7051Q19.2383-53.5156 23.6084-57.9102Q27.9785-62.3047 33.7646-64.7705Q39.5508-67.2363 46.1914-67.2363Q52.8809-67.2363 58.667-64.7705Q64.4531-62.3047 68.8477-57.9102Q73.2422-53.5156 75.7324-47.7051Q78.2227-41.8945 78.2227-35.2539Q78.2227-28.6133 75.7568-22.8027Q73.291-16.9922 68.9209-12.5977Q64.5508-8.20312 58.7402-5.7373Q52.9297-3.27148 46.2402-3.27148Z"/>
  </g>
  <g id="Light-S" transform="matrix(1 0 0 1 1107.6 696)">
   <path d="M45.5139 3.42407Q53.4828 3.42407 60.4755 0.408173Q67.4683-2.60773 72.8142-7.97043Q78.1601-13.3331 81.1928-20.3259Q84.2255-27.3186 84.2255-35.2539Q84.2255-43.1892 81.1928-50.182Q78.1601-57.1747 72.7974-62.5374Q67.4347-67.9001 60.442-70.916Q53.4492-73.9319 45.4803-73.9319Q37.5443-73.9319 30.5443-70.916Q23.5443-67.9001 18.2224-62.5374Q12.9005-57.1747 9.86824-50.182Q6.83594-43.1892 6.83594-35.2539Q6.83594-27.3186 9.86824-20.3259Q12.9005-13.3331 18.2392-7.97043Q23.5779-2.60773 30.5779 0.408173Q37.5778 3.42407 45.5139 3.42407ZM45.5139-2.2728Q38.6765-2.2728 32.7011-4.82178Q26.7258-7.37076 22.2118-11.9015Q17.6979-16.4322 15.1413-22.4243Q12.5847-28.4164 12.5847-35.2539Q12.5847-42.0914 15.1245-48.0835Q17.6643-54.0756 22.1783-58.6063Q26.6922-63.1371 32.6675-65.686Q38.6429-68.235 45.4803-68.235Q52.3514-68.235 58.3267-65.686Q64.3021-63.1371 68.8328-58.6063Q73.3635-54.0756 75.9293-48.0835Q78.495-42.0914 78.495-35.2539Q78.495-28.4164 75.946-22.4243Q73.3971-16.4322 68.8831-11.9015Q64.3692-7.37076 58.3771-4.82178Q52.3849-2.2728 45.5139-2.2728Z"/>
  </g>
  <g id="Thin-S" transform="matrix(1 0 0 1 811.863 696)">
   <path d="M44.5526 2.46277Q52.3422 2.46277 59.1545-0.472641Q65.9668-3.40805 71.1826-8.63075Q76.3985-13.8535 79.3407-20.6661Q82.283-27.4788 82.283-35.2539Q82.283-43.029 79.3407-49.8417Q76.3985-56.6544 71.1758-61.8771Q65.9531-67.0998 59.1408-70.0352Q52.3285-72.9706 44.5389-72.9706Q36.7638-72.9706 29.9335-70.0352Q23.1033-67.0998 17.9119-61.8771Q12.7205-56.6544 9.77821-49.8417Q6.83594-43.029 6.83594-35.2539Q6.83594-27.4788 9.77821-20.6661Q12.7205-13.8535 17.9188-8.63075Q23.1171-3.40805 29.9473-0.472641Q36.7775 2.46277 44.5526 2.46277ZM44.5526-0.951385Q37.455-0.951385 31.2294-3.61061Q25.0038-6.26984 20.2999-10.9806Q15.596-15.6914 12.9192-21.9238Q10.2425-28.1563 10.2425-35.2539Q10.2425-42.3515 12.9124-48.584Q15.5823-54.8164 20.2862-59.5272Q24.9901-64.238 31.2157-66.8972Q37.4413-69.5564 44.5389-69.5564Q51.6502-69.5564 57.8758-66.8972Q64.1014-64.238 68.8126-59.5272Q73.5237-54.8164 76.1894-48.584Q78.8551-42.3515 78.8551-35.2539Q78.8551-28.1563 76.1963-21.9238Q73.5374-15.6914 68.8332-10.9806Q64.1289-6.26984 57.8964-3.61061Q51.664-0.951385 44.5526-0.951385Z"/>
  </g>
  <g id="Ultralight-S" transform="matrix(1 0 0 1 515.649 696)">
   <path d="M44.0605 1.97067Q51.757 1.97067 58.4774-0.92392Q65.1978-3.81851 70.3468-8.9695Q75.4959-14.1205 78.3924-20.8405Q81.2889-27.5604 81.2889-35.2539Q81.2889-42.9474 78.3924-49.6674Q75.4959-56.3873 70.3453-61.5383Q65.1947-66.6893 58.4743-69.5839Q51.754-72.4785 44.0575-72.4785Q36.364-72.4785 29.6211-69.5839Q22.8783-66.6893 17.7532-61.5383Q12.6282-56.3873 9.73206-49.6674Q6.83594-42.9474 6.83594-35.2539Q6.83594-27.5604 9.73206-20.8405Q12.6282-14.1205 17.7547-8.9695Q22.8813-3.81851 29.6242-0.92392Q36.367 1.97067 44.0605 1.97067ZM44.0605-0.274658Q36.8294-0.274658 30.4756-2.98996Q24.1219-5.70526 19.3203-10.5087Q14.5187-15.3122 11.7805-21.6675Q9.04236-28.0228 9.04236-35.2539Q9.04236-42.485 11.779-48.8403Q14.5157-55.1956 19.3172-59.9991Q24.1188-64.8026 30.4726-67.5179Q36.8263-70.2332 44.0575-70.2332Q51.2917-70.2332 57.6454-67.5179Q63.9992-64.8026 68.8023-59.9991Q73.6053-55.1956 76.3226-48.8403Q79.0398-42.485 79.0398-35.2539Q79.0398-28.0228 76.3245-21.6675Q73.6092-15.3122 68.8076-10.5087Q64.006-5.70526 57.6504-2.98996Q51.2947-0.274658 44.0605-0.274658Z"/>
  </g>
 </g>
</svg>
